<?xml version="1.0" encoding="UTF-8"?><svg xmlns="http://www.w3.org/2000/svg" xmlns:xlink="http://www.w3.org/1999/xlink" contentScriptType="text/ecmascript" width="375" zoomAndPan="magnify" contentStyleType="text/css" viewBox="0 0 375 374.999991" height="374.999991" preserveAspectRatio="xMidYMid meet" version="1.0"><defs><clipPath id="clip-0"><path d="M 353 43 L 365.25 43 L 365.25 329.003906 L 353 329.003906 Z M 353 43 " clip-rule="nonzero"/></clipPath><clipPath id="clip-1"><path d="M 342 20.753906 L 365.25 20.753906 L 365.25 44 L 342 44 Z M 342 20.753906 " clip-rule="nonzero"/></clipPath><clipPath id="clip-2"><path d="M 353 32 L 365.25 32 L 365.25 56 L 353 56 Z M 353 32 " clip-rule="nonzero"/></clipPath><clipPath id="clip-3"><path d="M 0 20.753906 L 23 20.753906 L 23 44 L 0 44 Z M 0 20.753906 " clip-rule="nonzero"/></clipPath><clipPath id="clip-4"><path d="M 11 20.753906 L 354 20.753906 L 354 33 L 11 33 Z M 11 20.753906 " clip-rule="nonzero"/></clipPath><clipPath id="clip-5"><path d="M 0 43 L 365.25 43 L 365.25 56 L 0 56 Z M 0 43 " clip-rule="nonzero"/></clipPath><clipPath id="clip-6"><path d="M 0 43 L 12 43 L 12 329.003906 L 0 329.003906 Z M 0 43 " clip-rule="nonzero"/></clipPath><clipPath id="clip-7"><path d="M 0 317 L 365.25 317 L 365.25 329.003906 L 0 329.003906 Z M 0 317 " clip-rule="nonzero"/></clipPath></defs><path fill="rgb(84.309387%, 91.369629%, 100%)" d="M 305.324219 231.960938 C 319.535156 231.960938 331.007812 243.4375 331.007812 257.648438 C 331.007812 271.863281 319.535156 283.335938 305.324219 283.335938 C 291.171875 283.335938 279.644531 271.863281 279.644531 257.648438 C 279.644531 243.4375 291.171875 231.960938 305.324219 231.960938 Z M 305.324219 231.960938 " fill-opacity="1" fill-rule="nonzero"/><path fill="rgb(84.309387%, 91.369629%, 100%)" d="M 305.324219 146.339844 C 319.535156 146.339844 331.007812 157.8125 331.007812 172.027344 C 331.007812 186.238281 319.535156 197.710938 305.324219 197.710938 C 291.171875 197.710938 279.644531 186.238281 279.644531 172.027344 C 279.644531 157.8125 291.171875 146.339844 305.324219 146.339844 Z M 305.324219 146.339844 " fill-opacity="1" fill-rule="nonzero"/><path fill="rgb(71.369934%, 79.998779%, 84.309387%)" d="M 305.324219 146.339844 C 302.320312 146.339844 299.464844 146.949219 296.777344 147.90625 C 306.734375 151.441406 313.886719 160.835938 313.886719 172.027344 C 313.886719 183.214844 306.734375 192.609375 296.777344 196.144531 C 299.464844 197.101562 302.320312 197.710938 305.324219 197.710938 C 319.535156 197.710938 331.007812 186.238281 331.007812 172.027344 C 331.007812 157.8125 319.535156 146.339844 305.324219 146.339844 Z M 305.324219 146.339844 " fill-opacity="1" fill-rule="nonzero"/><path fill="rgb(71.369934%, 79.998779%, 84.309387%)" d="M 305.324219 231.960938 C 302.320312 231.960938 299.464844 232.574219 296.777344 233.53125 C 306.734375 237.066406 313.886719 246.460938 313.886719 257.648438 C 313.886719 268.835938 306.734375 278.234375 296.777344 281.765625 C 299.464844 282.726562 302.320312 283.335938 305.324219 283.335938 C 319.535156 283.335938 331.007812 271.863281 331.007812 257.648438 C 331.007812 243.4375 319.535156 231.960938 305.324219 231.960938 Z M 305.324219 231.960938 " fill-opacity="1" fill-rule="nonzero"/><path fill="rgb(84.309387%, 91.369629%, 100%)" d="M 359.542969 37.882812 L 359.542969 49.296875 L 5.707031 49.296875 L 5.707031 37.882812 C 5.707031 31.546875 10.785156 26.464844 17.121094 26.464844 L 348.128906 26.464844 C 354.464844 26.464844 359.542969 31.546875 359.542969 37.882812 Z M 359.542969 37.882812 " fill-opacity="1" fill-rule="nonzero"/><path fill="rgb(71.369934%, 79.998779%, 84.309387%)" d="M 296.765625 77.839844 L 331.007812 77.839844 L 331.007812 112.089844 L 296.765625 112.089844 Z M 296.765625 77.839844 " fill-opacity="1" fill-rule="nonzero"/><path fill="rgb(100%, 100%, 100%)" d="M 34.242188 77.839844 L 296.765625 77.839844 L 296.765625 112.089844 L 34.242188 112.089844 Z M 34.242188 77.839844 " fill-opacity="1" fill-rule="nonzero"/><path fill="rgb(100%, 100%, 100%)" d="M 5.820312 49.296875 L 5.707031 49.296875 L 5.707031 323.292969 L 359.542969 323.292969 L 359.542969 49.296875 Z M 305.324219 283.335938 C 291.171875 283.335938 279.644531 271.863281 279.644531 257.648438 C 279.644531 243.4375 291.171875 231.960938 305.324219 231.960938 C 319.535156 231.960938 331.007812 243.4375 331.007812 257.648438 C 331.007812 271.863281 319.535156 283.335938 305.324219 283.335938 Z M 305.324219 197.710938 C 291.171875 197.710938 279.644531 186.238281 279.644531 172.027344 C 279.644531 157.8125 291.171875 146.339844 305.324219 146.339844 C 319.535156 146.339844 331.007812 157.8125 331.007812 172.027344 C 331.007812 186.238281 319.535156 197.710938 305.324219 197.710938 Z M 331.007812 112.089844 L 34.242188 112.089844 L 34.242188 77.839844 L 331.007812 77.839844 Z M 331.007812 112.089844 " fill-opacity="1" fill-rule="nonzero"/><g clip-path="url(#clip-0)"><path fill="rgb(8.239746%, 12.159729%, 15.689087%)" d="M 359.542969 329.003906 C 356.386719 329.003906 353.835938 326.453125 353.835938 323.292969 L 353.835938 49.296875 C 353.835938 46.140625 356.386719 43.589844 359.542969 43.589844 C 362.699219 43.589844 365.25 46.140625 365.25 49.296875 L 365.25 323.292969 C 365.25 326.453125 362.699219 329.003906 359.542969 329.003906 Z M 359.542969 329.003906 " fill-opacity="1" fill-rule="nonzero"/></g><path fill="rgb(8.239746%, 12.159729%, 15.689087%)" d="M 57.21875 43.589844 C 54.070312 43.589844 51.484375 41.039062 51.484375 37.882812 C 51.484375 34.726562 54.003906 32.171875 57.15625 32.171875 L 57.21875 32.171875 C 60.367188 32.171875 62.925781 34.726562 62.925781 37.882812 C 62.925781 41.039062 60.367188 43.589844 57.21875 43.589844 Z M 57.21875 43.589844 " fill-opacity="1" fill-rule="nonzero"/><path fill="rgb(8.239746%, 12.159729%, 15.689087%)" d="M 40.097656 43.589844 C 36.949219 43.589844 34.363281 41.039062 34.363281 37.882812 C 34.363281 34.726562 36.882812 32.171875 40.035156 32.171875 L 40.097656 32.171875 C 43.246094 32.171875 45.804688 34.726562 45.804688 37.882812 C 45.804688 41.039062 43.246094 43.589844 40.097656 43.589844 Z M 40.097656 43.589844 " fill-opacity="1" fill-rule="nonzero"/><path fill="rgb(8.239746%, 12.159729%, 15.689087%)" d="M 22.976562 43.589844 C 19.828125 43.589844 17.242188 41.039062 17.242188 37.882812 C 17.242188 34.726562 19.761719 32.171875 22.914062 32.171875 L 22.976562 32.171875 C 26.125 32.171875 28.683594 34.726562 28.683594 37.882812 C 28.683594 41.039062 26.125 43.589844 22.976562 43.589844 Z M 22.976562 43.589844 " fill-opacity="1" fill-rule="nonzero"/><g clip-path="url(#clip-1)"><path fill="rgb(8.239746%, 12.159729%, 15.689087%)" d="M 359.542969 43.589844 C 356.386719 43.589844 353.835938 41.039062 353.835938 37.882812 C 353.835938 34.730469 351.277344 32.171875 348.128906 32.171875 C 344.972656 32.171875 342.421875 29.621094 342.421875 26.464844 C 342.421875 23.308594 344.972656 20.757812 348.128906 20.757812 C 357.566406 20.757812 365.25 28.441406 365.25 37.882812 C 365.25 41.039062 362.699219 43.589844 359.542969 43.589844 Z M 359.542969 43.589844 " fill-opacity="1" fill-rule="nonzero"/></g><g clip-path="url(#clip-2)"><path fill="rgb(8.239746%, 12.159729%, 15.689087%)" d="M 359.542969 55.007812 C 356.386719 55.007812 353.835938 52.453125 353.835938 49.296875 L 353.835938 37.882812 C 353.835938 34.726562 356.386719 32.171875 359.542969 32.171875 C 362.699219 32.171875 365.25 34.726562 365.25 37.882812 L 365.25 49.296875 C 365.25 52.453125 362.699219 55.007812 359.542969 55.007812 Z M 359.542969 55.007812 " fill-opacity="1" fill-rule="nonzero"/></g><g clip-path="url(#clip-3)"><path fill="rgb(8.239746%, 12.159729%, 15.689087%)" d="M 5.695312 43.589844 C 2.539062 43.589844 -0.0117188 41.039062 -0.0117188 37.882812 C -0.0117188 28.441406 7.671875 20.757812 17.109375 20.757812 C 20.265625 20.757812 22.816406 23.308594 22.816406 26.464844 C 22.816406 29.621094 20.265625 32.171875 17.109375 32.171875 C 13.960938 32.171875 11.402344 34.730469 11.402344 37.882812 C 11.402344 41.039062 8.851562 43.589844 5.695312 43.589844 Z M 5.695312 43.589844 " fill-opacity="1" fill-rule="nonzero"/></g><path fill="rgb(8.239746%, 12.159729%, 15.689087%)" d="M 5.695312 55.007812 C 2.539062 55.007812 -0.0117188 52.453125 -0.0117188 49.296875 L -0.0117188 37.882812 C -0.0117188 34.726562 2.539062 32.171875 5.695312 32.171875 C 8.851562 32.171875 11.402344 34.726562 11.402344 37.882812 L 11.402344 49.296875 C 11.402344 52.453125 8.851562 55.007812 5.695312 55.007812 Z M 5.695312 55.007812 " fill-opacity="1" fill-rule="nonzero"/><g clip-path="url(#clip-4)"><path fill="rgb(8.239746%, 12.159729%, 15.689087%)" d="M 348.140625 32.171875 L 17.199219 32.171875 C 14.046875 32.171875 11.492188 29.621094 11.492188 26.464844 C 11.492188 23.308594 14.046875 20.757812 17.199219 20.757812 L 348.140625 20.757812 C 351.296875 20.757812 353.847656 23.308594 353.847656 26.464844 C 353.847656 29.621094 351.296875 32.171875 348.140625 32.171875 Z M 348.140625 32.171875 " fill-opacity="1" fill-rule="nonzero"/></g><g clip-path="url(#clip-5)"><path fill="rgb(8.239746%, 12.159729%, 15.689087%)" d="M 359.554688 55.007812 L 5.785156 55.007812 C 2.632812 55.007812 0.078125 52.453125 0.078125 49.296875 C 0.078125 46.140625 2.632812 43.589844 5.785156 43.589844 L 359.554688 43.589844 C 362.710938 43.589844 365.261719 46.140625 365.261719 49.296875 C 365.261719 52.453125 362.710938 55.007812 359.554688 55.007812 Z M 359.554688 55.007812 " fill-opacity="1" fill-rule="nonzero"/></g><g clip-path="url(#clip-6)"><path fill="rgb(8.239746%, 12.159729%, 15.689087%)" d="M 5.695312 329.003906 C 2.539062 329.003906 -0.0117188 326.453125 -0.0117188 323.292969 L -0.0117188 49.296875 C -0.0117188 46.140625 2.539062 43.589844 5.695312 43.589844 C 8.851562 43.589844 11.402344 46.140625 11.402344 49.296875 L 11.402344 323.292969 C 11.402344 326.453125 8.851562 329.003906 5.695312 329.003906 Z M 5.695312 329.003906 " fill-opacity="1" fill-rule="nonzero"/></g><g clip-path="url(#clip-7)"><path fill="rgb(8.239746%, 12.159729%, 15.689087%)" d="M 359.542969 329.003906 L 5.695312 329.003906 C 2.539062 329.003906 -0.0117188 326.453125 -0.0117188 323.292969 C -0.0117188 320.136719 2.539062 317.585938 5.695312 317.585938 L 359.542969 317.585938 C 362.699219 317.585938 365.25 320.136719 365.25 323.292969 C 365.25 326.453125 362.699219 329.003906 359.542969 329.003906 Z M 359.542969 329.003906 " fill-opacity="1" fill-rule="nonzero"/></g><path fill="rgb(8.239746%, 12.159729%, 15.689087%)" d="M 331.007812 117.796875 L 34.242188 117.796875 C 31.085938 117.796875 28.535156 115.246094 28.535156 112.089844 L 28.535156 77.839844 C 28.535156 74.683594 31.085938 72.132812 34.242188 72.132812 L 331.007812 72.132812 C 334.164062 72.132812 336.714844 74.683594 336.714844 77.839844 L 336.714844 112.089844 C 336.714844 115.246094 334.164062 117.796875 331.007812 117.796875 Z M 39.949219 106.378906 L 325.300781 106.378906 L 325.300781 83.546875 L 39.949219 83.546875 Z M 39.949219 106.378906 " fill-opacity="1" fill-rule="nonzero"/><path fill="rgb(8.239746%, 12.159729%, 15.689087%)" d="M 296.765625 117.796875 C 293.609375 117.796875 291.058594 115.246094 291.058594 112.089844 L 291.058594 77.839844 C 291.058594 74.683594 293.609375 72.132812 296.765625 72.132812 C 299.921875 72.132812 302.472656 74.683594 302.472656 77.839844 L 302.472656 112.089844 C 302.472656 115.246094 299.921875 117.796875 296.765625 117.796875 Z M 296.765625 117.796875 " fill-opacity="1" fill-rule="nonzero"/><path fill="rgb(8.239746%, 12.159729%, 15.689087%)" d="M 34.414062 203.421875 C 31.257812 203.421875 28.679688 200.871094 28.679688 197.710938 C 28.679688 194.554688 31.199219 192.003906 34.351562 192.003906 L 34.414062 192.003906 C 37.5625 192.003906 40.121094 194.554688 40.121094 197.710938 C 40.121094 200.871094 37.5625 203.421875 34.414062 203.421875 Z M 34.414062 203.421875 " fill-opacity="1" fill-rule="nonzero"/><path fill="rgb(8.239746%, 12.159729%, 15.689087%)" d="M 74.191406 169.171875 C 71.035156 169.171875 68.484375 166.621094 68.484375 163.464844 C 68.484375 160.3125 65.925781 157.753906 62.777344 157.753906 C 59.628906 157.753906 57.070312 160.3125 57.070312 163.464844 C 57.070312 166.621094 54.519531 169.171875 51.363281 169.171875 C 48.207031 169.171875 45.65625 166.621094 45.65625 163.464844 C 45.65625 154.023438 53.339844 146.339844 62.777344 146.339844 C 72.214844 146.339844 79.898438 154.023438 79.898438 163.464844 C 79.898438 166.621094 77.347656 169.171875 74.191406 169.171875 Z M 74.191406 169.171875 " fill-opacity="1" fill-rule="nonzero"/><path fill="rgb(8.239746%, 12.159729%, 15.689087%)" d="M 62.777344 203.421875 C 53.339844 203.421875 45.65625 195.738281 45.65625 186.296875 C 45.65625 183.140625 48.207031 180.589844 51.363281 180.589844 C 54.519531 180.589844 57.070312 183.140625 57.070312 186.296875 C 57.070312 189.445312 59.628906 192.003906 62.777344 192.003906 C 65.925781 192.003906 68.484375 189.445312 68.484375 186.296875 C 68.484375 183.140625 71.035156 180.589844 74.191406 180.589844 C 77.347656 180.589844 79.898438 183.140625 79.898438 186.296875 C 79.898438 195.738281 72.214844 203.421875 62.777344 203.421875 Z M 62.777344 203.421875 " fill-opacity="1" fill-rule="nonzero"/><path fill="rgb(8.239746%, 12.159729%, 15.689087%)" d="M 114.140625 169.171875 C 110.984375 169.171875 108.433594 166.621094 108.433594 163.464844 C 108.433594 160.3125 105.875 157.753906 102.726562 157.753906 C 99.578125 157.753906 97.019531 160.3125 97.019531 163.464844 C 97.019531 166.621094 94.46875 169.171875 91.3125 169.171875 C 88.15625 169.171875 85.605469 166.621094 85.605469 163.464844 C 85.605469 154.023438 93.289062 146.339844 102.726562 146.339844 C 112.164062 146.339844 119.847656 154.023438 119.847656 163.464844 C 119.847656 166.621094 117.296875 169.171875 114.140625 169.171875 Z M 114.140625 169.171875 " fill-opacity="1" fill-rule="nonzero"/><path fill="rgb(8.239746%, 12.159729%, 15.689087%)" d="M 102.726562 203.421875 C 93.289062 203.421875 85.605469 195.738281 85.605469 186.296875 C 85.605469 183.140625 88.15625 180.589844 91.3125 180.589844 C 94.46875 180.589844 97.019531 183.140625 97.019531 186.296875 C 97.019531 189.445312 99.578125 192.003906 102.726562 192.003906 C 105.875 192.003906 108.433594 189.445312 108.433594 186.296875 C 108.433594 183.140625 110.984375 180.589844 114.140625 180.589844 C 117.296875 180.589844 119.847656 183.140625 119.847656 186.296875 C 119.847656 195.738281 112.164062 203.421875 102.726562 203.421875 Z M 102.726562 203.421875 " fill-opacity="1" fill-rule="nonzero"/><path fill="rgb(8.239746%, 12.159729%, 15.689087%)" d="M 51.363281 192.003906 C 48.207031 192.003906 45.65625 189.453125 45.65625 186.296875 L 45.65625 163.464844 C 45.65625 160.304688 48.207031 157.753906 51.363281 157.753906 C 54.519531 157.753906 57.070312 160.304688 57.070312 163.464844 L 57.070312 186.296875 C 57.070312 189.453125 54.519531 192.003906 51.363281 192.003906 Z M 51.363281 192.003906 " fill-opacity="1" fill-rule="nonzero"/><path fill="rgb(8.239746%, 12.159729%, 15.689087%)" d="M 91.3125 192.003906 C 88.15625 192.003906 85.605469 189.453125 85.605469 186.296875 L 85.605469 163.464844 C 85.605469 160.304688 88.15625 157.753906 91.3125 157.753906 C 94.46875 157.753906 97.019531 160.304688 97.019531 163.464844 L 97.019531 186.296875 C 97.019531 189.453125 94.46875 192.003906 91.3125 192.003906 Z M 91.3125 192.003906 " fill-opacity="1" fill-rule="nonzero"/><path fill="rgb(8.239746%, 12.159729%, 15.689087%)" d="M 114.140625 192.003906 C 110.984375 192.003906 108.433594 189.453125 108.433594 186.296875 L 108.433594 163.464844 C 108.433594 160.304688 110.984375 157.753906 114.140625 157.753906 C 117.296875 157.753906 119.847656 160.304688 119.847656 163.464844 L 119.847656 186.296875 C 119.847656 189.453125 117.296875 192.003906 114.140625 192.003906 Z M 114.140625 192.003906 " fill-opacity="1" fill-rule="nonzero"/><path fill="rgb(8.239746%, 12.159729%, 15.689087%)" d="M 131.261719 203.421875 C 128.105469 203.421875 125.554688 200.871094 125.554688 197.710938 L 125.554688 152.046875 C 125.554688 148.890625 128.105469 146.339844 131.261719 146.339844 C 134.417969 146.339844 136.96875 148.890625 136.96875 152.046875 L 136.96875 197.710938 C 136.96875 200.871094 134.417969 203.421875 131.261719 203.421875 Z M 131.261719 203.421875 " fill-opacity="1" fill-rule="nonzero"/><path fill="rgb(8.239746%, 12.159729%, 15.689087%)" d="M 148.386719 186.296875 C 146.449219 186.296875 144.558594 185.308594 143.492188 183.527344 L 126.371094 154.988281 C 124.75 152.28125 125.625 148.777344 128.328125 147.15625 C 131.039062 145.535156 134.539062 146.414062 136.160156 149.113281 L 153.28125 177.652344 C 154.898438 180.359375 154.027344 183.863281 151.320312 185.484375 C 150.402344 186.035156 149.386719 186.296875 148.386719 186.296875 Z M 148.386719 186.296875 " fill-opacity="1" fill-rule="nonzero"/><path fill="rgb(8.239746%, 12.159729%, 15.689087%)" d="M 148.378906 186.296875 C 147.378906 186.296875 146.363281 186.035156 145.445312 185.480469 C 142.738281 183.859375 141.867188 180.355469 143.484375 177.648438 L 160.605469 149.105469 C 162.226562 146.40625 165.726562 145.527344 168.4375 147.148438 C 171.140625 148.769531 172.015625 152.273438 170.394531 154.980469 L 153.273438 183.523438 C 152.207031 185.308594 150.316406 186.296875 148.378906 186.296875 Z M 148.378906 186.296875 " fill-opacity="1" fill-rule="nonzero"/><path fill="rgb(8.239746%, 12.159729%, 15.689087%)" d="M 165.503906 203.421875 C 162.347656 203.421875 159.796875 200.871094 159.796875 197.710938 L 159.796875 152.046875 C 159.796875 148.890625 162.347656 146.339844 165.503906 146.339844 C 168.660156 146.339844 171.210938 148.890625 171.210938 152.046875 L 171.210938 197.710938 C 171.210938 200.871094 168.660156 203.421875 165.503906 203.421875 Z M 165.503906 203.421875 " fill-opacity="1" fill-rule="nonzero"/><path fill="rgb(8.239746%, 12.159729%, 15.689087%)" d="M 305.324219 203.421875 C 288.023438 203.421875 273.9375 189.332031 273.9375 172.027344 C 273.9375 154.71875 288.023438 140.628906 305.324219 140.628906 C 322.628906 140.628906 336.714844 154.71875 336.714844 172.027344 C 336.714844 189.332031 322.628906 203.421875 305.324219 203.421875 Z M 305.324219 152.046875 C 294.3125 152.046875 285.351562 161.007812 285.351562 172.027344 C 285.351562 183.042969 294.3125 192.003906 305.324219 192.003906 C 316.339844 192.003906 325.300781 183.042969 325.300781 172.027344 C 325.300781 161.007812 316.339844 152.046875 305.324219 152.046875 Z M 305.324219 152.046875 " fill-opacity="1" fill-rule="nonzero"/><path fill="rgb(8.239746%, 12.159729%, 15.689087%)" d="M 302.472656 186.296875 C 301.011719 186.296875 299.550781 185.738281 298.4375 184.625 L 292.730469 178.914062 C 290.5 176.683594 290.5 173.074219 292.730469 170.84375 C 294.960938 168.613281 298.570312 168.613281 300.800781 170.84375 L 306.507812 176.550781 C 308.738281 178.785156 308.738281 182.390625 306.507812 184.625 C 305.394531 185.738281 303.933594 186.296875 302.472656 186.296875 Z M 302.472656 186.296875 " fill-opacity="1" fill-rule="nonzero"/><path fill="rgb(8.239746%, 12.159729%, 15.689087%)" d="M 302.472656 186.296875 C 301.011719 186.296875 299.550781 185.738281 298.4375 184.625 C 296.207031 182.390625 296.207031 178.785156 298.4375 176.550781 L 309.851562 165.136719 C 312.082031 162.902344 315.691406 162.902344 317.921875 165.136719 C 320.152344 167.367188 320.152344 170.976562 317.921875 173.207031 L 306.507812 184.625 C 305.394531 185.738281 303.933594 186.296875 302.472656 186.296875 Z M 302.472656 186.296875 " fill-opacity="1" fill-rule="nonzero"/><path fill="rgb(8.239746%, 12.159729%, 15.689087%)" d="M 251.109375 169.171875 L 205.453125 169.171875 C 202.296875 169.171875 199.746094 166.621094 199.746094 163.464844 C 199.746094 160.304688 202.296875 157.753906 205.453125 157.753906 L 251.109375 157.753906 C 254.265625 157.753906 256.816406 160.304688 256.816406 163.464844 C 256.816406 166.621094 254.265625 169.171875 251.109375 169.171875 Z M 251.109375 169.171875 " fill-opacity="1" fill-rule="nonzero"/><path fill="rgb(8.239746%, 12.159729%, 15.689087%)" d="M 228.28125 186.296875 L 205.453125 186.296875 C 202.296875 186.296875 199.746094 183.746094 199.746094 180.589844 C 199.746094 177.429688 202.296875 174.878906 205.453125 174.878906 L 228.28125 174.878906 C 231.4375 174.878906 233.988281 177.429688 233.988281 180.589844 C 233.988281 183.746094 231.4375 186.296875 228.28125 186.296875 Z M 228.28125 186.296875 " fill-opacity="1" fill-rule="nonzero"/><path fill="rgb(8.239746%, 12.159729%, 15.689087%)" d="M 34.414062 289.046875 C 31.257812 289.046875 28.679688 286.492188 28.679688 283.335938 C 28.679688 280.179688 31.199219 277.628906 34.351562 277.628906 L 34.414062 277.628906 C 37.5625 277.628906 40.121094 280.179688 40.121094 283.335938 C 40.121094 286.492188 37.5625 289.046875 34.414062 289.046875 Z M 34.414062 289.046875 " fill-opacity="1" fill-rule="nonzero"/><path fill="rgb(8.239746%, 12.159729%, 15.689087%)" d="M 51.363281 289.046875 C 48.207031 289.046875 45.65625 286.492188 45.65625 283.335938 L 45.65625 237.671875 C 45.65625 234.515625 48.207031 231.960938 51.363281 231.960938 C 54.519531 231.960938 57.070312 234.515625 57.070312 237.671875 L 57.070312 283.335938 C 57.070312 286.492188 54.519531 289.046875 51.363281 289.046875 Z M 51.363281 289.046875 " fill-opacity="1" fill-rule="nonzero"/><path fill="rgb(8.239746%, 12.159729%, 15.689087%)" d="M 74.195312 289.046875 C 72.101562 289.046875 70.089844 287.890625 69.082031 285.886719 L 46.253906 240.222656 C 44.847656 237.402344 45.988281 233.972656 48.804688 232.5625 C 51.625 231.164062 55.050781 232.292969 56.464844 235.113281 L 79.292969 280.78125 C 80.703125 283.597656 79.5625 287.03125 76.742188 288.441406 C 75.925781 288.851562 75.054688 289.046875 74.195312 289.046875 Z M 74.195312 289.046875 " fill-opacity="1" fill-rule="nonzero"/><path fill="rgb(8.239746%, 12.159729%, 15.689087%)" d="M 74.191406 289.046875 C 71.035156 289.046875 68.484375 286.492188 68.484375 283.335938 L 68.484375 237.671875 C 68.484375 234.515625 71.035156 231.960938 74.191406 231.960938 C 77.347656 231.960938 79.898438 234.515625 79.898438 237.671875 L 79.898438 283.335938 C 79.898438 286.492188 77.347656 289.046875 74.191406 289.046875 Z M 74.191406 289.046875 " fill-opacity="1" fill-rule="nonzero"/><path fill="rgb(8.239746%, 12.159729%, 15.689087%)" d="M 305.324219 289.046875 C 288.023438 289.046875 273.9375 274.957031 273.9375 257.648438 C 273.9375 240.34375 288.023438 226.253906 305.324219 226.253906 C 322.628906 226.253906 336.714844 240.34375 336.714844 257.648438 C 336.714844 274.957031 322.628906 289.046875 305.324219 289.046875 Z M 305.324219 237.671875 C 294.3125 237.671875 285.351562 246.632812 285.351562 257.648438 C 285.351562 268.667969 294.3125 277.628906 305.324219 277.628906 C 316.339844 277.628906 325.300781 268.667969 325.300781 257.648438 C 325.300781 246.632812 316.339844 237.671875 305.324219 237.671875 Z M 305.324219 237.671875 " fill-opacity="1" fill-rule="nonzero"/><path fill="rgb(8.239746%, 12.159729%, 15.689087%)" d="M 251.109375 254.796875 L 205.453125 254.796875 C 202.296875 254.796875 199.746094 252.242188 199.746094 249.085938 C 199.746094 245.929688 202.296875 243.378906 205.453125 243.378906 L 251.109375 243.378906 C 254.265625 243.378906 256.816406 245.929688 256.816406 249.085938 C 256.816406 252.242188 254.265625 254.796875 251.109375 254.796875 Z M 251.109375 254.796875 " fill-opacity="1" fill-rule="nonzero"/><path fill="rgb(8.239746%, 12.159729%, 15.689087%)" d="M 228.28125 271.921875 L 205.453125 271.921875 C 202.296875 271.921875 199.746094 269.367188 199.746094 266.210938 C 199.746094 263.054688 202.296875 260.503906 205.453125 260.503906 L 228.28125 260.503906 C 231.4375 260.503906 233.988281 263.054688 233.988281 266.210938 C 233.988281 269.367188 231.4375 271.921875 228.28125 271.921875 Z M 228.28125 271.921875 " fill-opacity="1" fill-rule="nonzero"/><path fill="rgb(8.239746%, 12.159729%, 15.689087%)" d="M 91.3125 289.046875 C 88.15625 289.046875 85.605469 286.492188 85.605469 283.335938 L 85.605469 237.671875 C 85.605469 234.515625 88.15625 231.960938 91.3125 231.960938 C 94.46875 231.960938 97.019531 234.515625 97.019531 237.671875 L 97.019531 283.335938 C 97.019531 286.492188 94.46875 289.046875 91.3125 289.046875 Z M 91.3125 289.046875 " fill-opacity="1" fill-rule="nonzero"/><path fill="rgb(8.239746%, 12.159729%, 15.689087%)" d="M 108.433594 243.378906 L 91.3125 243.378906 C 88.15625 243.378906 85.605469 240.828125 85.605469 237.671875 C 85.605469 234.515625 88.15625 231.960938 91.3125 231.960938 L 108.433594 231.960938 C 111.589844 231.960938 114.140625 234.515625 114.140625 237.671875 C 114.140625 240.828125 111.589844 243.378906 108.433594 243.378906 Z M 108.433594 243.378906 " fill-opacity="1" fill-rule="nonzero"/><path fill="rgb(8.239746%, 12.159729%, 15.689087%)" d="M 102.726562 266.210938 L 91.3125 266.210938 C 88.15625 266.210938 85.605469 263.660156 85.605469 260.503906 C 85.605469 257.347656 88.15625 254.796875 91.3125 254.796875 L 102.726562 254.796875 C 105.882812 254.796875 108.433594 257.347656 108.433594 260.503906 C 108.433594 263.660156 105.882812 266.210938 102.726562 266.210938 Z M 102.726562 266.210938 " fill-opacity="1" fill-rule="nonzero"/><path fill="rgb(8.239746%, 12.159729%, 15.689087%)" d="M 108.433594 289.046875 L 91.3125 289.046875 C 88.15625 289.046875 85.605469 286.492188 85.605469 283.335938 C 85.605469 280.179688 88.15625 277.628906 91.3125 277.628906 L 108.433594 277.628906 C 111.589844 277.628906 114.140625 280.179688 114.140625 283.335938 C 114.140625 286.492188 111.589844 289.046875 108.433594 289.046875 Z M 108.433594 289.046875 " fill-opacity="1" fill-rule="nonzero"/><path fill="rgb(8.239746%, 12.159729%, 15.689087%)" d="M 136.96875 289.046875 C 133.8125 289.046875 131.261719 286.492188 131.261719 283.335938 L 131.261719 237.671875 C 131.261719 234.515625 133.8125 231.960938 136.96875 231.960938 C 140.125 231.960938 142.675781 234.515625 142.675781 237.671875 L 142.675781 283.335938 C 142.675781 286.492188 140.125 289.046875 136.96875 289.046875 Z M 136.96875 289.046875 " fill-opacity="1" fill-rule="nonzero"/><path fill="rgb(8.239746%, 12.159729%, 15.689087%)" d="M 148.382812 243.378906 L 125.554688 243.378906 C 122.398438 243.378906 119.847656 240.828125 119.847656 237.671875 C 119.847656 234.515625 122.398438 231.960938 125.554688 231.960938 L 148.382812 231.960938 C 151.539062 231.960938 154.089844 234.515625 154.089844 237.671875 C 154.089844 240.828125 151.539062 243.378906 148.382812 243.378906 Z M 148.382812 243.378906 " fill-opacity="1" fill-rule="nonzero"/><path fill="rgb(8.239746%, 12.159729%, 15.689087%)" d="M 313.886719 271.921875 C 312.425781 271.921875 310.964844 271.359375 309.851562 270.246094 L 292.730469 253.121094 C 290.5 250.890625 290.5 247.285156 292.730469 245.050781 C 294.960938 242.820312 298.570312 242.820312 300.800781 245.050781 L 317.921875 262.175781 C 320.152344 264.40625 320.152344 268.015625 317.921875 270.246094 C 316.808594 271.359375 315.347656 271.921875 313.886719 271.921875 Z M 313.886719 271.921875 " fill-opacity="1" fill-rule="nonzero"/><path fill="rgb(8.239746%, 12.159729%, 15.689087%)" d="M 296.765625 271.921875 C 295.304688 271.921875 293.84375 271.359375 292.730469 270.246094 C 290.5 268.015625 290.5 264.40625 292.730469 262.175781 L 309.851562 245.050781 C 312.082031 242.820312 315.691406 242.820312 317.921875 245.050781 C 320.152344 247.285156 320.152344 250.890625 317.921875 253.121094 L 300.800781 270.246094 C 299.6875 271.359375 298.226562 271.921875 296.765625 271.921875 Z M 296.765625 271.921875 " fill-opacity="1" fill-rule="nonzero"/><path fill="rgb(8.239746%, 12.159729%, 15.689087%)" d="M 154.089844 100.671875 L 51.339844 100.671875 C 48.183594 100.671875 45.632812 98.121094 45.632812 94.964844 C 45.632812 91.808594 48.183594 89.253906 51.339844 89.253906 L 154.089844 89.253906 C 157.246094 89.253906 159.796875 91.808594 159.796875 94.964844 C 159.796875 98.121094 157.246094 100.671875 154.089844 100.671875 Z M 154.089844 100.671875 " fill-opacity="1" fill-rule="nonzero"/></svg>