<svg xmlns="http://www.w3.org/2000/svg" xmlns:xlink="http://www.w3.org/1999/xlink" version="1.1" id="Layer_1" x="0px" y="0px" viewBox="0 0 3018.8 3485.3" style="enable-background:new 0 0 3018.8 3485.3;" xml:space="preserve">
<style type="text/css">
	.st0{fill:#FF9A6C;}
	.st1{fill:#EA8057;}
	.st2{fill:#FFDFB0;}
	.st3{fill:#D38E2A;}
	.st4{fill:#FEBE58;}
	.st5{fill:#FFCF8F;}
	.st6{fill:#4F7FFF;}
	.st7{fill:#ECECEC;}
	.st8{fill:#1E0F00;}
	.st9{opacity:0.3;}
	.st10{fill:#FFBF9D;}
	.st11{opacity:0.4;}
	.st12{fill:#0E538D;}
</style>
<path class="st0" d="M2267.8,407.6l19.7-37.3c0,0,9.2-30.3,0-50.7c-9.2-20.4-21.3-64.1-7.8-109.1c13.5-45.1,45.1-64.8,83.1-70.4  c38-5.6,88.4,11.3,101.7,35.9s14.7,56.5,9.5,78.7c-4.3,18.4,9.6,47.6,13.9,56c4.2,8.4-13.4,15.5-13.4,15.5s2,57.8-30.8,59.4  s-41.1-5.1-50.6,5.1s-39.6,75.7-39.6,75.7L2267.8,407.6z"/>
<path class="st1" d="M2453.9,382.8c-15.1,7.8-59.4-21.3-61.9-5.3c-2,12.4-27.5,65.7-38.7,88.8l0.2,0.2c0,0,30.1-65.5,39.6-75.7  s17.9-3.5,50.6-5.1c6.3-0.3,11.3-2.7,15.2-6.3C2457,380.9,2455.2,382.1,2453.9,382.8z"/>
<polygon id="XMLID_14276_" class="st2" points="959.8,2595.3 487.3,2595.3 169.2,2283.4 641.7,2283.4 "/>
<polygon id="XMLID_14277_" class="st2" points="1432.2,2412.2 959.8,2412.2 641.7,2100.4 1114.1,2100.4 "/>
<polygon id="XMLID_14280_" class="st2" points="1904.7,2229.1 1432.2,2229.1 1114.1,1917.3 1586.6,1917.3 "/>
<polygon id="XMLID_14283_" class="st2" points="2377.2,2046 1904.7,2046 1586.6,1734.2 2059,1734.2 "/>
<polygon id="XMLID_14292_" class="st2" points="2849.6,1863 2377.2,1863 2059,1551.1 2531.5,1551.1 "/>
<polygon id="XMLID_14278_" class="st3" points="641.7,2283.4 641.7,2100.4 959.8,2412.2 959.8,2595.3 "/>
<polygon id="XMLID_14279_" class="st3" points="1114.1,2100.4 1114.1,1917.3 1432.2,2229.1 1432.2,2412.2 "/>
<polygon id="XMLID_14281_" class="st3" points="1586.6,1917.3 1586.6,1734.2 1904.7,2046 1904.7,2229.1 "/>
<polygon id="XMLID_14290_" class="st3" points="2059,1734.2 2059,1551.1 2377.2,1863 2377.2,2046 "/>
<polygon id="XMLID_14286_" class="st3" points="487.3,2595.3 487.3,3245.7 169.2,2933.9 169.2,2283.4 "/>
<rect id="XMLID_14300_" x="487.3" y="2595.3" class="st4" width="472.5" height="650.4"/>
<rect id="XMLID_14302_" x="959.8" y="2412.2" class="st4" width="472.5" height="833.5"/>
<rect id="XMLID_14303_" x="1432.2" y="2229.1" class="st4" width="472.5" height="1016.6"/>
<rect id="XMLID_14304_" x="1904.7" y="2046" class="st4" width="472.5" height="1199.7"/>
<rect id="XMLID_14305_" x="2377.2" y="1863" class="st4" width="472.5" height="1382.7"/>
<polygon id="XMLID_14297_" class="st5" points="396,2283.4 714.1,2595.3 959.8,2595.3 641.7,2283.4 "/>
<polygon id="XMLID_14359_" class="st5" points="867.8,2100.4 1186,2412.2 1431.6,2412.2 1113.5,2100.4 "/>
<polygon id="XMLID_14363_" class="st5" points="1340.9,1917.3 1659,2229.1 1904.7,2229.1 1586.6,1917.3 "/>
<polygon id="XMLID_14366_" class="st5" points="1813.4,1734.2 2131.5,2046 2377.2,2046 2059,1734.2 "/>
<polygon class="st0" points="2276.5,1511.7 2250.3,1567.4 2315.9,1595.7 2346,1537.2 "/>
<path class="st6" d="M2224.8,1633.7l26.4-68.8l68,22.8c0,0,39.6,50.2,61,57.7c21.4,7.5,30.6,49.5,6.3,51.4  C2362.3,1698.6,2224.8,1633.7,2224.8,1633.7z"/>
<polygon class="st0" points="1940.3,1645.4 1911.4,1699.7 1975.5,1731.3 2008.5,1674.3 "/>
<path class="st6" d="M1879.8,1759.2l34.6-65.1l64.7,30.9c0,0,33.2,54.7,53.6,64.7c20.3,10,24.3,52.8,0,51.7  C2008.3,1840.3,1879.8,1759.2,1879.8,1759.2z"/>
<g>
	<polygon class="st7" points="2381.7,419.1 2376.7,595.6 2266.9,359.2 2269.6,337.3  "/>
</g>
<g>
	<path class="st8" d="M2308.9,946.7c4,1.3,232.7,232.5,227.5,274.1c-5.1,41.5-167.9,349.1-167.9,349.1l-116.1-57.3l108.9-269.7   l-1.4-16.7l-133.1-109.1l7.1-175.4L2308.9,946.7z"/>
</g>
<g>
	<path class="st8" d="M2259.6,992.2c-2.7,4-42.3,367.3-52.9,386.1c-10.6,18.8-169.6,328.9-169.6,328.9l-118.1-47.6l144.1-340.8   l-16.4-322.6l8.9-91.1l178.3,36.6L2259.6,992.2z"/>
</g>
<g>
	<g>
		<path class="st6" d="M2365.7,663.2l-29.2,145l-23.8,202.3c0,0-98.1-13.7-139.9-26.9c-48.5-15.3-154-28.4-154-28.4l17.8,17.6    c-37.7-10.6-61.8-46.6-61.8-46.6c65-60.3,120.5-184.4,120.5-184.4l49.5-245.6c0,0,7.5-34.6,12-50c4.5-15.4,79.6-65.1,90-71.4    l6.5-3.1l2.1-19.7l7.7-4.6l81.3,73.8c15.8,14.4,25.9,34,28.3,55.2c2.5,22.4,4.8,54.5,3.5,92.4    C2375.4,597.5,2365.7,663.2,2365.7,663.2z"/>
	</g>
</g>
<g>
	<path class="st6" d="M2309.9,412c0,0,42.9,23,50.4,42.6c7.4,19.5-14.7,233.7-14.7,233.7l154.2,2.9l0.5,91.9   c0,0-244.9,19.4-254.5,6.1c-12.9-17.9-27.9-185.3-27.9-185.3l-5.6-120.4C2212.4,483.4,2226.6,391.6,2309.9,412z"/>
</g>
<g class="st9">
	<g>
		<path d="M2336.4,808.2c-20.8,6.7-40,7.8-61.7,5.8c-21.7-2-43.8-13.9-52-34.1c-6.3-15.5-3.7-32.9-4.6-49.6    c-0.8-14.5-4.4-28.7-6.6-43c-2.2-14.3,5.2-40.7,10-54.4c0,0,5.5,99.4,21.1,141.2c2.1,5.7,4.8,11.4,9.5,15.2    c5.5,4.4,13.1,4.8,20.2,5.6c19.7,2.1,67.1-1.4,67.1-1.4"/>
	</g>
</g>
<g>
	<path class="st6" d="M2144.2,517.2c0,0-80.2,104.9-90,133.5c-9.8,28.6-2.2,69.6,14.1,89.3c16.3,19.6,29.5,11.6,29.5,11.6   L2144.2,517.2z"/>
</g>
<g class="st9">
	<g>
		<path d="M2079.8,833c-12.7,22.7-25.8,45.8-45.2,63.1c-6.8,6.1-14.5,11.5-19.7,19.1c-5.2,7.5-7.5,18.1-2.5,25.8    c1.7,2.7,4.8,5.1,8,4.3c2.2-0.5,3.8-2.4,5.2-4.2c24.1-31.1,42.3-66.8,53.3-104.6"/>
	</g>
</g>
<g class="st9">
	<g>
		<path d="M2090.4,751.2c-11-7.9-14.8-22.9-13.2-36.3c1.6-13.4,7.8-25.8,13.3-38.1c17.2-38.2,28.9-72.8,39.1-114.6l7.8-29.1    l-39.7,207.6L2090.4,751.2z"/>
	</g>
</g>
<g>
	<g>
		<path class="st10" d="M2497.8,701.9c0,0,33.3-25.2,41.4-26.7c6.2-1.2,43.3-0.5,60.4-0.2c6.6,0.1,12.3,5.3,12.2,11.9    c0,0.4,0,0.8-0.1,1.2c-1.3,6.9-8.1,8.4-8.1,8.4s8.8,2.5,9,12.2c0.1,9.6-11.5,11.7-11.5,11.7s0.7,0.5,1.7,1.5    c6.4,6.4,3.1,17.3-5.6,19.3l-5.3,1.2c0,0,7.1,3,7,9.6c-0.2,12.7-28.7,15.1-28.7,15.1s-70.5,11.2-72,10.7    C2496.6,777.1,2497.8,701.9,2497.8,701.9z"/>
	</g>
	<g>
		<path class="st10" d="M2593,660c-0.3,4.2-1.3,13.1-8.4,17.1l-39.3-1.5c0,0,29.3-10.1,33.4-15.1c1.5-1.7,3.5-3.9,5.6-5.5    C2588.1,652.2,2593.4,655.4,2593,660z"/>
	</g>
</g>
<g>
	<path class="st6" d="M2050,974.9c-13.9-1.2-27-9.5-34.1-21.5c-0.8-1.4-1.5-3.2-0.4-4.4c0.7-0.8,1.9-0.9,3-0.9   c11-0.1,22,1.8,32.3,5.5c1.2,0.4,2.5,1,2.9,2.2c0.3,0.8,0.1,1.8-0.1,2.7c-1.4,5.3-2.8,10.6-4.1,16"/>
</g>
<g class="st11">
	<g>
		<path d="M2050,974.9c-13.9-1.2-27-9.5-34.1-21.5c-0.8-1.4-1.5-3.2-0.4-4.4c0.7-0.8,1.9-0.9,3-0.9c11-0.1,22,1.8,32.3,5.5    c1.2,0.4,2.5,1,2.9,2.2c0.3,0.8,0.1,1.8-0.1,2.7c-1.4,5.3-2.8,10.6-4.1,16"/>
	</g>
</g>
<g>
	<path class="st7" d="M2381.7,419.1c0,0,16.2,54.3,11.7,51.2c-4.5-3.1-14.1-11.7-14.1-11.7L2381.7,419.1z"/>
</g>
<g>
	<path class="st8" d="M2380.8,444.1l8.8,21.1c0.9,2.2,1.4,4.5,1.7,6.8c0.7,5.9,1.6,16.8-1.9,17.5c-4.9,1-9.5-3.9-9.5-3.9   L2380.8,444.1z"/>
</g>
<g>
	<path class="st8" d="M2106.5,447.4c0,0,86.5-33.8,134.4-3.9c47.9,29.8,56.6,77.4,85.2,77.4c55.6,0,53.9-39.3,53.9-39.3l11.8,3.6   c0.2,8,12.9,65.7-45.7,72.9c-58.6,7.2-83.3-72.8-136-72.9c-52.7-0.1-92.8,28.5-92.8,28.5l-37.9-24L2106.5,447.4z"/>
</g>
<g>
	<path class="st12" d="M2328.5,557.1c0,0-21.6-11.1-33.4-38.3c-13.4-31-42.3-66.4-66.4-75.3c-24.1-8.9-79.8-15.1-118.3,10   l-24.7,33.3l32,20.8c0,0,25.3-13.9,56.4-22.6c39.8-11.1,64,1.4,87.1,23.3c1.4,1.4,2.8,2.7,3.9,4c5.8,6.6,22,22,36.6,32.4   C2313.1,552.8,2323.3,557.2,2328.5,557.1z"/>
</g>
<path class="st8" d="M2291.2,350.1c0,0,30.8,7.4,37.3,7.4s19-46.5,19-46.5s-17.9-6.5-23.2-28c-5.3-21.5,9.7-26.5,17.2-23  s12.5,14,12.5,14s33.1,40.5,39.1-26.5S2448,204,2465,208s25.5-6.2,21.5-23c-9-37.5-33-64-122.5-52s-77,50.5-77,50.5  s-28.2,35-20.1,76.5S2295.9,335.6,2291.2,350.1z"/>
</svg>